:SAMPLES-PER-SECOND 30
:FULLY-SPECIFIED
:DEGREES
358
root  3.22691 34.2953 30.0623 7.14853 8.03129 0.904893
LeftUpLeg  -12.8113 7.2222 -0.645173
LeftLeg  15.6302 1.65005 0.3473
LeftFoot  -1.68738 0.00492125 -0.0361749
LeftToes  -14.2065 2.60077e-006 -1.42232e-007
Spine  1.18104 1.62642 -1.82183
Spine1  2.16579 3.21694 -3.22988
RightShoulder  0.0993449 8.03079 7.99983
RightArm  -45.0834 -21.3103 76.0298
RightForeArm  42.8353 6.43392 1.12862
RightHand  0.0967612 -11.4077 -0.598391
LeftShoulder1  0.0323711 1.37558 -12.062
LeftArm  -27.789 15.1705 -63.3932
LeftForeArm  32.5948 -12.1808 -2.17532
LeftHand  0.21872 3.98983 5.89284
HEad  -10.9339 -21.4526 1.91928
RightUpLeg  -8.59816 -7.12726 -6.65258
RightLeg  14.7354 3.41559 0.667472
RightFoot  -1.73092 -0.0069262 -0.0237769
RightToes  -36.6222 -0.192078 -0.295257
359
root  3.08964 34.2926 30.1394 7.13239 8.44583 0.871764
LeftUpLeg  -12.8025 7.13938 -0.334388
LeftLeg  15.7481 1.35698 0.28821
LeftFoot  -1.63427 0.0049937 -0.0263161
LeftToes  -14.6558 2.60077e-006 -1.42232e-007
Spine  1.0795 1.39004 -1.58621
Spine1  2.00553 2.7547 -2.79572
RightShoulder  0.097109 7.82738 8.2732
RightArm  -45.8959 -23.2285 76.6733
RightForeArm  40.5711 6.95548 1.22418
RightHand  0.111027 -11.477 -0.734377
LeftShoulder1  0.0250373 1.47263 -12.0673
LeftArm  -28.2443 16.369 -64.1981
LeftForeArm  32.966 -11.385 -2.02913
LeftHand  0.229936 4.34974 5.67003
HEad  -9.20638 -20.6264 1.60636
RightUpLeg  -8.5132 -7.12859 -6.35425
RightLeg  14.9807 3.04705 0.609059
RightFoot  -2.02568 -0.00700446 -0.0287207
RightToes  -36.1548 -0.188518 -0.292468
360
root  2.95308 34.2946 30.1945 6.98551 8.68793 0.745812
LeftUpLeg  -12.6954 6.79421 0.0733772
LeftLeg  15.8701 1.48958 0.319849
LeftFoot  -1.57243 0.00591196 -0.0301789
LeftToes  -14.9904 2.60077e-006 -1.42232e-007
Spine  1.02327 1.16317 -1.32111
Spine1  1.9204 2.32077 -2.31279
RightShoulder  0.093729 7.40034 8.61286
RightArm  -45.7521 -24.4765 76.584
RightForeArm  38.3432 8.08489 1.42829
RightHand  0.0813626 -11.1156 -0.465855
LeftShoulder1  0.0187304 1.57327 -12.1305
LeftArm  -28.3702 17.526 -65.0881
LeftForeArm  33.0471 -11.0122 -1.96102
LeftHand  0.223934 4.60683 5.18508
HEad  -6.40311 -19.791 1.27024
RightUpLeg  -8.41511 -6.75744 -5.98351
RightLeg  15.2694 2.51239 0.515428
RightFoot  -2.22444 -0.00792963 -0.0192862
RightToes  -35.744 -0.185126 -0.289743
361
root  2.82349 34.3021 30.2375 6.77859 8.72636 0.65879
LeftUpLeg  -12.3799 6.3512 0.424367
LeftLeg  15.6922 1.92723 0.408097
LeftFoot  -1.36741 0.00691969 -0.0359991
LeftToes  -15.3648 2.60077e-006 -1.42232e-007
Spine  0.990444 0.958504 -1.10561
Spine1  1.86837 1.9413 -1.93977
RightShoulder  0.0889829 6.97475 8.74691
RightArm  -44.7393 -24.9888 76.1959
RightForeArm  36.9462 9.37302 1.66119
RightHand  0.0740254 -10.5142 -0.434232
LeftShoulder1  0.013272 1.67412 -12.0299
LeftArm  -28.6283 18.6385 -66.1301
LeftForeArm  32.7955 -11.0554 -1.96909
LeftHand  0.206305 4.78505 4.5581
HEad  -2.68498 -18.8706 0.902706
RightUpLeg  -8.24212 -6.49815 -5.66332
RightLeg  15.4044 2.21518 0.459935
RightFoot  -2.35054 -0.00849335 -0.0140517
RightToes  -35.2861 -0.181964 -0.286976
362
root  2.70687 34.3114 30.2636 6.50575 8.6138 0.598835
LeftUpLeg  -12.0182 6.35029 0.713896
LeftLeg  15.5424 2.06369 0.431491
LeftFoot  -1.19527 0.00738637 -0.0339679
LeftToes  -15.6617 2.60077e-006 -1.42232e-007
Spine  0.979609 0.797754 -0.954867
Spine1  1.84734 1.65418 -1.70037
RightShoulder  0.0824455 6.52501 8.7687
RightArm  -42.7084 -24.9369 75.6168
RightForeArm  36.7373 10.9699 1.95094
RightHand  0.101809 -9.83303 -0.812954
LeftShoulder1  0.0099837 1.7198 -11.8224
LeftArm  -28.6221 19.5838 -67.1233
LeftForeArm  32.1799 -11.4364 -2.03909
LeftHand  0.185663 4.9106 3.9523
HEad  1.66146 -17.9118 0.465203
RightUpLeg  -8.00535 -6.61724 -5.42289
RightLeg  15.4412 2.40884 0.501696
RightFoot  -2.43891 -0.00771165 -0.0281118
RightToes  -34.8292 -0.179139 -0.28409
363
root  2.61286 34.3248 30.2695 6.22946 8.28573 0.551002
LeftUpLeg  -11.6856 6.66807 0.938567
LeftLeg  15.4469 2.07558 0.430387
LeftFoot  -1.07637 0.00765716 -0.0294394
LeftToes  -15.7071 2.60077e-006 -1.42232e-007
Spine  1.0011 0.742203 -0.87037
Spine1  1.87998 1.57568 -1.58204
RightShoulder  0.0708371 5.96762 8.84056
RightArm  -38.5945 -24.8237 74.736
RightForeArm  36.1032 13.7451 2.46308
RightHand  0.159878 -8.68024 -1.73503
LeftShoulder1  0.00840608 1.80607 -11.7372
LeftArm  -27.8341 20.0528 -67.7979
LeftForeArm  31.4022 -11.9897 -2.14101
LeftHand  0.168729 4.89563 3.57046
HEad  6.07082 -17.1049 -0.190515
RightUpLeg  -7.8143 -6.78954 -5.27392
RightLeg  15.4528 2.91364 0.607296
RightFoot  -2.45173 -0.00615675 -0.0523981
RightToes  -34.5787 -0.176688 -0.28206
364
root  2.5329 34.358 30.2621 6.00543 7.92769 0.513725
LeftUpLeg  -11.266 6.8386 1.1251
LeftLeg  15.0247 2.2469 0.448849
LeftFoot  -0.73508 0.0071745 -0.0137384
LeftToes  -15.8543 2.60077e-006 -1.42232e-007
Spine  1.0515 0.748468 -0.85162
Spine1  1.97493 1.60813 -1.55837
RightShoulder  0.0445632 5.18999 8.99064
RightArm  -31.4798 -25.1596 73.298
RightForeArm  33.5853 18.5467 3.38269
RightHand  0.271099 -6.55465 -4.35727
LeftShoulder1  0.00769061 1.96511 -11.7969
LeftArm  -26.5654 19.9897 -68.135
LeftForeArm  30.8642 -12.7121 -2.27439
LeftHand  0.149226 4.84411 3.15239
HEad  10.1302 -16.4063 -1.04911
RightUpLeg  -7.39191 -6.62073 -5.14183
RightLeg  14.8067 3.13339 0.616448
RightFoot  -2.16022 -0.00636309 -0.0473751
RightToes  -34.4721 -0.174628 -0.280358
365
root  2.45419 34.3758 30.2376 5.84035 7.69055 0.480364
LeftUpLeg  -11.0097 6.73302 1.29853
LeftLeg  14.7536 2.57062 0.501125
LeftFoot  -0.473976 0.00705488 -0.00420611
LeftToes  -16.0916 2.60077e-006 -1.42232e-007
Spine  1.13264 0.730266 -0.853123
Spine1  2.12451 1.567 -1.55803
RightShoulder  0.0296119 4.27375 9.11304
RightArm  -23.8036 -26.7588 71.2888
RightForeArm  31.2216 30.2178 5.88885
RightHand  0.346451 -5.18514 -7.26085
LeftShoulder1  0.00787805 2.06125 -11.8495
LeftArm  -25.4735 19.602 -68.285
LeftForeArm  30.5672 -13.5482 -2.42956
LeftHand  0.136339 4.68497 2.95764
HEad  13.7221 -15.5497 -1.93243
RightUpLeg  -7.04257 -6.27987 -4.98229
RightLeg  14.1826 3.02903 0.561926
RightFoot  -1.94118 -0.00697151 -0.033963
RightToes  -34.3177 -0.172811 -0.278887
366
root  2.38166 34.382 30.1941 5.72119 7.48591 0.440561
LeftUpLeg  -10.8897 6.60009 1.45426
LeftLeg  14.6004 2.89325 0.556174
LeftFoot  -0.253265 0.00711218 0.00206033
LeftToes  -16.453 2.60077e-006 -1.42232e-007
Spine  1.24083 0.702115 -0.856736
Spine1  2.31693 1.50426 -1.56951
RightShoulder  0.0278602 3.37209 8.93607
RightArm  -16.943 -28.3795 68.7567
RightForeArm  32.7455 44.1763 9.87659
RightHand  0.32942 -3.47829 -10.4275
LeftShoulder1  0.00988491 2.14723 -11.8442
LeftArm  -24.6143 18.9494 -68.3188
LeftForeArm  30.0944 -14.4165 -2.59203
LeftHand  0.125141 4.46486 2.83497
HEad  16.8527 -14.392 -2.93208
RightUpLeg  -6.87888 -5.959 -4.80917
RightLeg  13.8007 2.86824 0.512499
RightFoot  -1.83818 -0.00648689 -0.0268145
RightToes  -33.9656 -0.171149 -0.277552
367
root  2.31333 34.396 30.1411 5.69399 7.28438 0.4519
LeftUpLeg  -10.7787 6.6294 1.54042
LeftLeg  14.2386 3.04285 0.565142
LeftFoot  0.0496807 0.00661392 0.0164538
LeftToes  -16.3888 2.60077e-006 -1.42232e-007
Spine  1.32306 0.682936 -0.915273
Spine1  2.46039 1.45547 -1.68057
RightShoulder  0.0252437 2.6484 8.4063
RightArm  -10.1381 -29.8313 65.522
RightForeArm  39.7334 60.0367 17.8867
RightHand  0.130191 -1.01863 -14.1064
LeftShoulder1  0.0117394 2.22347 -11.8251
LeftArm  -23.9318 18.1256 -68.1395
LeftForeArm  29.5988 -15.2841 -2.75572
LeftHand  0.119843 4.35041 2.78001
HEad  19.4269 -13.0484 -3.8613
RightUpLeg  -6.80718 -5.55209 -4.67193
RightLeg  13.3959 2.59699 0.445318
RightFoot  -1.69449 -0.00570314 -0.0151665
RightToes  -33.6098 -0.169552 -0.276256
368
root  2.25508 34.4149 30.08 5.67512 7.22027 0.465899
LeftUpLeg  -10.6737 6.68893 1.60971
LeftLeg  13.8053 3.01547 0.536545
LeftFoot  0.442523 0.00572266 0.0364584
LeftToes  -16.551 2.60077e-006 -1.42232e-007
Spine  1.39467 0.673425 -0.995446
Spine1  2.58961 1.41882 -1.82268
RightShoulder  0.0233318 2.14552 7.51921
RightArm  -4.43847 -30.3684 61.9509
RightForeArm  61.8979 75.0599 41.7785
RightHand  -0.113552 0.739624 -17.2372
LeftShoulder1  0.0134576 2.29966 -11.7754
LeftArm  -23.3557 17.085 -67.8613
LeftForeArm  29.322 -16.0381 -2.89901
LeftHand  0.113984 4.13254 2.78389
HEad  21.3083 -11.7768 -4.67036
RightUpLeg  -6.72524 -5.1817 -4.5433
RightLeg  12.9691 2.21314 0.362794
RightFoot  -1.48813 -0.00484048 0.000149204
RightToes  -33.4178 -0.168151 -0.275027
